<?xml version="1.0" encoding="UTF-8"?>
<!-- Generated by Pixelmator Pro 3.6.14 -->
<svg width="943" height="973" viewBox="0 0 943 973" xmlns="http://www.w3.org/2000/svg">
    <text id="CHURCH" visibility="hidden" xml:space="preserve" x="-229.947266" y="1457" font-family="Helvetica" font-size="324" fill="#9d191e">CHURCH</text>
    <text id="SOJOURNERS" visibility="hidden" xml:space="preserve" x="-662.237305" y="1175" font-family="Helvetica" font-size="324" font-weight="700" fill="#000000">SOJOURNERS</text>
    <g id="Vectors">
        <path id="Shape-6" fill="#000000" fill-rule="evenodd" stroke="none" d="M 441 972.389832 C 298.738159 965.931458 177.566101 903.793091 102.78595 798.949951 C 82.078247 769.917358 45 697.492798 45 686.077209 C 45 683.38623 60.205994 672.463562 89 654.471375 C 118.147705 636.258118 116.787109 636.469543 120.993408 649.5 C 147.22821 730.771667 219.605286 793.62915 247.535034 759.397888 C 256.350342 748.593689 258.531006 735.868347 258.39917 696 C 258.303711 667.164551 257.415771 650.497559 253.433594 602.803284 C 250.850952 571.87085 255.044434 571.452759 261.489868 602 C 266.38916 625.219543 270.11499 640.265503 273.972778 652.409363 C 322.305786 804.555969 460.949951 915.908752 602.154663 915.990356 C 642.157837 916.013489 689.879272 906.678589 715.210205 893.875244 C 724.946777 888.953979 725.115112 892.675293 715.449585 899.16925 C 645.901489 945.896851 531.242798 976.486694 441 972.389832 Z"/>
        <path id="Shape-5" fill="#890b18" fill-rule="evenodd" stroke="none" d="M 0.007019 686.25 C 0.013367 684.671936 2.500671 681.3172 15.477844 665.383972 C 54.750366 617.165344 113.337891 558.769775 165.064758 516.287109 C 189.806091 495.967407 232.170105 464.894409 238.272705 462.590942 C 242.080139 461.153809 242.698914 462.377319 243.506714 472.939331 C 243.866821 477.647705 244.805298 487.800049 245.592224 495.5 C 250.312744 541.689819 252.856567 534.629639 227.545532 545.585571 C 169.999817 570.494385 99.39032 613.308655 33.114563 663.479187 C 31.676514 664.567749 25.16803 669.742737 18.651184 674.979187 C 1.86438 688.467712 -0.006409 689.598694 0.007019 686.25 Z"/>
        <path id="Shape-4" fill="#890b18" fill-rule="evenodd" stroke="none" d="M 222.865356 232.5 C 204.149841 249.771606 183.145203 271.265747 178.580994 277 C 176.611023 279.474976 172.453247 284.875 169.341492 289 C 166.229736 293.125 162.480957 298.074951 161.010864 300 C 151.636169 312.275635 126 357.630737 126 361.940674 C 126 362.386475 124.828186 365.394653 123.395935 368.62561 C 106.063599 407.724609 95.53363 467.218628 97.582947 514.467285 L 98.275513 530.434448 L 78.262024 549.967285 C 67.254639 560.710205 51.606812 576.474976 43.489197 585 C 26.960266 602.358337 26.713501 602.564636 24.978577 600.474243 C 20.548401 595.136108 19.238281 536.999512 22.793274 503.5 C 29.248352 442.672363 45.814575 391.813843 77.516052 335.5 C 99.129761 297.105835 139.85144 249.56665 176.023865 220.5 C 197.537659 203.212524 220.135864 187.675781 222.94397 188.241577 C 224.575684 188.570313 224.867981 210.304321 223.451782 226 L 222.865356 232.5 Z"/>
        <path id="Shape-3" fill="#000000" fill-rule="evenodd" stroke="none" d="M 786 325.350342 C 784.074951 325.177856 773.796021 324.603149 763.157715 324.072998 C 740.09082 322.923584 741.579468 323.629395 731.994995 309.297729 C 713.437012 281.548218 682.373901 246.894043 662.898071 232.212769 C 659.929199 229.974609 655.025024 226.227539 652 223.885742 C 632.052124 208.443359 591.691528 185.312378 574.778442 179.629517 C 572.181641 178.756958 566.781616 176.718994 562.778442 175.100708 C 517.978638 156.990356 432.265015 148.172119 390.914673 157.419189 C 389.58667 157.716187 381.027466 159.536987 371.894409 161.465332 C 356.70752 164.671997 335.099121 170.773315 325.729736 174.500244 C 320.932007 176.408691 317.372803 176.413818 316.643433 174.513184 C 315.49292 171.515137 312.899536 149.891846 313.473511 148.083374 C 314.744019 144.080444 346.971313 135.062012 374.595703 130.979248 C 409.783936 125.778564 411.774658 125.619629 442.5 125.559082 C 471.733398 125.501465 480.053101 126.046265 502.5 129.487427 C 507.449951 130.246338 514.875 131.357178 519 131.955933 C 559.339844 137.812256 618.092285 159.760254 657.965942 183.869263 C 663.759644 187.372437 670.608154 191.505981 673.184814 193.054932 C 709.403931 214.828491 761.639771 265.113281 788.772461 304.325439 C 804.473755 327.01709 804.475342 327.005127 786 325.350342 Z"/>
        <path id="Shape-2" fill="#890b18" fill-rule="evenodd" stroke="none" d="M 386.866577 488.866577 C 378.204834 480.204834 349.235718 405.529907 353.25 402.21167 C 355.046387 400.726685 396.882813 386.963257 399.5 386.996216 C 400.050049 387.003174 406.574951 385.247559 414 383.094849 C 432.977051 377.592896 485.924927 365.390015 499 363.504883 C 501.474976 363.148071 510.474976 361.553101 519 359.960449 C 527.525024 358.367798 541.699951 356.130493 550.5 354.988525 C 559.300049 353.846558 570.775024 352.287109 576 351.523071 C 589.468872 349.553345 602.483032 348.144775 617.5 347.03125 C 624.650024 346.501099 639.275024 345.380249 650 344.540405 C 697.977051 340.783813 762.738647 340.759888 810 344.481445 C 820.175049 345.282715 834.349976 346.403076 841.5 346.971191 C 879.885376 350.020996 941.680542 359.541626 942.687012 362.560913 C 942.891357 363.174072 917.778687 363.528076 873.754272 363.532593 C 799.636353 363.540161 792.522461 363.842896 744.582886 369.029663 C 665.948242 377.537354 582.06665 395.590088 532.743042 414.621216 C 527.926758 416.479492 523.480347 418 522.861938 418 C 521.823975 418 516.903198 420.02063 494 429.85144 C 464.45752 442.532227 426.224487 464.417236 402.21106 482.392456 C 390.43689 491.205933 389.571167 491.571167 386.866577 488.866577 Z"/>
        <path id="Shape" fill="#890b18" fill-rule="evenodd" stroke="none" d="M 589.5 873.892639 C 420.48877 858.173462 294.841064 702.200684 260.106567 465 C 241.689758 339.232544 248.369141 138.427979 274.858521 21.5 C 276.478394 14.349976 278.093262 6.8125 278.447144 4.75 C 279.553833 -1.699707 281.052612 0.502319 280.489014 7.75 C 269.527954 148.700562 304.891846 370.383545 357.73877 492 C 425.168091 647.174988 547.94873 731.608765 667.5 705.016602 C 710.479858 695.456421 736.827393 676.769531 757.207764 641.391602 C 788.972656 586.251465 795.670532 484.152588 772.768066 404.199829 C 769.074341 391.305176 768.823608 389.747803 770.216309 388.355103 C 772.063843 386.507568 790.370728 385.109863 813.594971 385.043335 C 831.487183 384.991943 830.042358 384.081665 835.748169 399 C 877.032227 506.939697 870.630371 642.580139 819.866333 735.5 C 767.789795 830.822327 681.805176 882.477661 589.5 873.892639 Z"/>
    </g>
</svg>
